<?xml version="1.0" encoding="UTF-8"?>
<svg id="Layer_1" data-name="Layer 1" xmlns="http://www.w3.org/2000/svg" xmlns:xlink="http://www.w3.org/1999/xlink" viewBox="0 0 963.98 262">
  <defs>
    <style>
      .cls-1, .cls-2 {
        fill: #025432;
        stroke: #025432;
        stroke-miterlimit: 10;
      }

      .cls-2 {
        stroke-linecap: round;
        stroke-width: 3px;
      }
    </style>
  </defs>
  <image width="4962" height="1579" transform="scale(.15 .17)" xlink:href="C:\Users\admin\Downloads\University Logo-Full Version.jpg"/>
  <line class="cls-2" x1="714.5" y1="42.5" x2="714.5" y2="242.5"/>
  <g>
    <path class="cls-1" d="m734.44,111.19h4.19v-40.09h-4.19v-5.54h10.55v5.54h-4.19v40.09h4.19v5.54h-10.55v-5.54Z"/>
    <path class="cls-1" d="m749.82,78.82h1.75l.18,6.4h.1c1.31-4.13,2.75-7.33,4.71-7.33,2.96,0,4.32,5.3,4.32,15.29v23.56h-2.14v-22.7c0-7.18-.82-10.53-2.86-10.53-1.49,0-2.5,2.26-3.94,6.79v26.44h-2.13v-37.91Z"/>
    <path class="cls-1" d="m764.69,111.74l.98-4.29c1.44,3.12,3.14,5.15,5.43,5.15,2.11,0,3.14-2.65,3.14-5.85,0-2.89-.49-4.91-3.88-7.02-3.27-2.03-4.89-5.38-4.89-11.08,0-6.08,1.77-10.76,5.2-10.76,1.9,0,3.81,2.26,5.04,4.84l-1.03,4.13c-1.16-2.42-2.6-3.98-4.19-3.98-2.11,0-2.88,2.57-2.88,5.46,0,3.28,1.08,4.68,3.65,6.32,4.14,2.73,5.15,5.85,5.15,11.7,0,6.16-1.98,11.31-5.56,11.31-2.44,0-4.63-2.73-6.15-5.93Z"/>
    <path class="cls-1" d="m783.59,101.99v-17.94h-3.55v-4.84l3.63-.39.28-12.17h1.77v12.17h6.12v5.23h-6.12v18.02c0,6.79.75,10.3,3.17,10.3,1.16,0,2.08-.7,2.98-1.72l.46,4.76c-1.13,1.25-2.34,2.26-3.91,2.26-3.65,0-4.84-6.32-4.84-15.68Z"/>
    <path class="cls-1" d="m801.83,84.05h-5.79v-5.23h7.92v37.91h-2.14v-32.68Zm-.85-18.17c0-2.96.72-4.99,1.7-4.99s1.7,2.03,1.7,4.99-.72,4.99-1.7,4.99-1.7-1.95-1.7-4.99Z"/>
    <path class="cls-1" d="m814.46,101.99v-17.94h-3.55v-4.84l3.63-.39.28-12.17h1.77v12.17h6.12v5.23h-6.12v18.02c0,6.79.75,10.3,3.17,10.3,1.16,0,2.08-.7,2.98-1.72l.46,4.76c-1.13,1.25-2.34,2.26-3.91,2.26-3.65,0-4.84-6.32-4.84-15.68Z"/>
    <path class="cls-1" d="m826.57,102.38v-23.56h2.14v22.7c0,7.1.82,10.53,2.88,10.53,1.44,0,2.5-2.03,3.88-6.94v-26.29h2.14v37.91h-1.78l-.18-6.63h-.1c-1.26,4.45-2.73,7.57-4.66,7.57-2.96,0-4.32-5.3-4.32-15.29Z"/>
    <path class="cls-1" d="m845.32,101.99v-17.94h-3.55v-4.84l3.63-.39.28-12.17h1.77v12.17h6.12v5.23h-6.12v18.02c0,6.79.75,10.3,3.17,10.3,1.16,0,2.08-.7,2.98-1.72l.46,4.76c-1.13,1.25-2.34,2.26-3.91,2.26-3.65,0-4.84-6.32-4.84-15.68Z"/>
    <path class="cls-1" d="m863.56,84.05h-5.79v-5.23h7.92v37.91h-2.14v-32.68Zm-.85-18.17c0-2.96.72-4.99,1.7-4.99s1.7,2.03,1.7,4.99-.72,4.99-1.7,4.99-1.7-1.95-1.7-4.99Z"/>
    <path class="cls-1" d="m872.43,97.85c0-12.71,2.88-19.97,6.17-19.97s6.17,7.25,6.17,19.97-2.88,19.81-6.17,19.81-6.17-7.25-6.17-19.81Zm10.16,0c0-8.74-1.59-14.59-3.99-14.59s-3.99,5.85-3.99,14.59,1.59,14.43,3.99,14.43,3.99-5.77,3.99-14.43Z"/>
    <path class="cls-1" d="m888.71,78.82h1.75l.18,6.4h.1c1.31-4.13,2.75-7.33,4.71-7.33,2.96,0,4.32,5.3,4.32,15.29v23.56h-2.14v-22.7c0-7.18-.82-10.53-2.86-10.53-1.49,0-2.5,2.26-3.94,6.79v26.44h-2.13v-37.91Z"/>
    <path class="cls-1" d="m903.81,106.9c0-8.5,2.62-12.64,9.08-14.2-.08-5.15-.9-9.52-3.32-9.52-1.62,0-3.21,2.34-4.37,4.52l-.85-4.37c1.29-2.5,3.4-5.46,5.58-5.46,3.42,0,5.09,6.16,5.09,15.6v23.25h-1.77l-.18-5.15h-.08c-1.36,3.28-3.16,6.08-4.91,6.08-2.34,0-4.27-3.98-4.27-10.76Zm9.08-.08v-9.83c-5.35,1.25-6.97,4.45-6.97,9.44,0,4.29,1.29,6.01,2.73,6.01s2.8-2.03,4.25-5.62Z"/>
    <path class="cls-1" d="m923.51,104.02v-37.6h-4.43v-5.23h6.56v43.29c0,5.46.98,7.8,2.47,7.8.72,0,1.49-.55,2.34-1.72l.54,4.84c-1.16,1.48-1.98,2.26-3.34,2.26-2.68,0-4.14-4.68-4.14-13.65Z"/>
    <path class="cls-1" d="m811.71,159.16h5.27c3.42,0,5.92,3.74,5.92,14.43s-2.5,15.13-5.92,15.13h-3.09v21.61h-2.19v-51.17Zm4.96,24.26c2.62,0,4.07-3.28,4.07-9.83s-1.44-9.13-4.07-9.13h-2.78v18.95h2.78Zm1.57.08l5.15,26.83h-2.44l-4.4-23.4,1.7-3.43Z"/>
    <path class="cls-1" d="m826.34,191.3c0-12.32,3.04-19.81,6.38-19.81,3.6,0,5.71,7.1,5.71,17.78,0,1.48-.05,2.89-.1,3.9h-10.57v-4.99h9.31l-.54,1.79c0-8.97-1.47-13.42-3.76-13.42s-4.32,5.3-4.32,14.74,2.11,14.82,4.89,14.82c1.49,0,2.68-1.4,3.81-3.59l.77,4.21c-1.23,2.5-2.83,4.52-4.84,4.52-3.76,0-6.74-7.33-6.74-19.97Z"/>
    <path class="cls-1" d="m842.42,172.42h1.75l.18,4.84h.08c1.16-3.35,2.8-5.77,4.32-5.77,3.37,0,5.17,7.57,5.17,19.34,0,12.87-2.68,20.44-5.69,20.44-1.16,0-2.6-1.79-3.73-4.91h-.05l.1,7.18v12.79h-2.13v-53.9Zm9.31,18.41c0-8.35-1.03-13.88-3.52-13.88-1.11,0-2.39,1.72-3.65,5.62v18.88c1.16,3.2,2.47,4.37,3.32,4.37,2.21,0,3.86-5.62,3.86-14.98Z"/>
    <path class="cls-1" d="m857,191.45c0-12.71,2.88-19.97,6.17-19.97s6.17,7.25,6.17,19.97-2.88,19.81-6.17,19.81-6.17-7.25-6.17-19.81Zm10.16,0c0-8.74-1.59-14.59-3.99-14.59s-3.99,5.85-3.99,14.59,1.59,14.43,3.99,14.43,3.99-5.77,3.99-14.43Z"/>
    <path class="cls-1" d="m872.71,205.34l.98-4.29c1.44,3.12,3.14,5.15,5.43,5.15,2.11,0,3.14-2.65,3.14-5.85,0-2.89-.49-4.91-3.88-7.02-3.27-2.03-4.89-5.38-4.89-11.08,0-6.08,1.77-10.76,5.2-10.76,1.9,0,3.81,2.26,5.04,4.84l-1.03,4.13c-1.16-2.42-2.6-3.98-4.19-3.98-2.11,0-2.88,2.57-2.88,5.46,0,3.28,1.08,4.68,3.65,6.32,4.14,2.73,5.15,5.85,5.15,11.7,0,6.16-1.98,11.31-5.56,11.31-2.44,0-4.63-2.73-6.15-5.93Z"/>
    <path class="cls-1" d="m894.42,177.65h-5.79v-5.23h7.92v37.91h-2.14v-32.68Zm-.85-18.17c0-2.96.72-4.99,1.7-4.99s1.7,2.03,1.7,4.99-.72,4.99-1.7,4.99-1.7-1.95-1.7-4.99Z"/>
    <path class="cls-1" d="m907.05,195.59v-17.94h-3.55v-4.84l3.63-.39.28-12.17h1.77v12.17h6.12v5.23h-6.12v18.02c0,6.79.75,10.3,3.17,10.3,1.16,0,2.08-.7,2.98-1.72l.46,4.76c-1.13,1.25-2.34,2.26-3.91,2.26-3.65,0-4.84-6.32-4.84-15.68Z"/>
    <path class="cls-1" d="m918.73,191.45c0-12.71,2.88-19.97,6.17-19.97s6.17,7.25,6.17,19.97-2.88,19.81-6.17,19.81-6.17-7.25-6.17-19.81Zm10.16,0c0-8.74-1.59-14.59-3.99-14.59s-3.99,5.85-3.99,14.59,1.59,14.43,3.99,14.43,3.99-5.77,3.99-14.43Z"/>
    <path class="cls-1" d="m936.35,172.42h1.78l.21,8.97h.05c1.31-6.16,3.27-9.91,5.58-9.91.93,0,1.7.39,2.47,1.56l-.49,5.54c-.88-.86-1.34-1.25-2.32-1.25-1.88,0-3.65,2.89-5.15,10.84v22.15h-2.13v-37.91Z"/>
    <path class="cls-1" d="m949.77,225.85l.44-5.15c.33.31.75.55,1.13.55,1.75,0,2.8-3.35,3.42-8.03l.36-2.81-5.81-37.99h2.16l3.04,20.91c.49,3.35,1.03,7.33,1.54,11h.1c.44-3.59.93-7.57,1.34-11l2.7-20.91h2.06l-5.53,41.03c-.93,7.49-2.44,13.18-5.3,13.18-.59,0-1.21-.31-1.65-.78Z"/>
  </g>
</svg>